#!OML:ASF F:\VICON\USERDATA\INSTALL\rory3\rory3.ASF
:FULLY-SPECIFIED
:DEGREES
121
root -0.11553332035280053 17.455810436766768 60.37201769448671 1.4696043371252414 3.11904656220759 1.8553799416635397
lfemur -0.5688042635768316 -4.001042323372825 -23.482456528076103
ltibia 43.506676167991145
lfoot 14.506056363881145 -17.900684150068194
ltoes -1.1334509106989987
rfemur -25.78317138303356 4.285259103837523 21.921796397668807
rtibia 43.55068912857189
rfoot -1.9362057459718178 -6.779873594102248
rtoes 13.578502653785753
lowerback 11.597167514678093 -0.7603377804344722 -1.877244616972218
upperback -0.7552826662103702 -1.2692046893282696 1.7368721194257346
thorax -7.112642450078383 -0.6199226688990396 2.95077773018021
lowerneck -16.544365644313423 -2.9315103339082413 -3.429970663827321
upperneck 19.45578277412432 -3.1406854346592166 2.30408460743779
head 8.721152073846598 -1.564175455750521 1.2377804703863582
lclavicle -1.6745109145525166e-15 -3.591411087464128e-15
lhumerus -38.21168785409366 -6.2238057696585845 89.2406891492786
lradius 75.08427130090173
lwrist 20.993863977588596
lhand -31.7167117460868 13.700841347786065
lfingers 7.125019999999999
lthumb -5.08039324065168 43.5762799941553
rclavicle -1.6761241552133279e-15 -3.592531278595645e-15
rhumerus -39.532493287983705 -8.180810480914353 -85.45653536437774
rradius 56.160905748262984
rwrist 1.84522494463571
rhand -18.729047733513962 28.907760713056607
rfingers 7.125019999999999
rthumb 7.13963673929759 -1.256114162460299
122
root -0.1390783992228105 17.443241750054387 59.94680446466606 1.3766875798512253 2.3091532127337366 0.9940139196094688
lfemur -0.6501274499009995 -3.7559941072727945 -22.39544311198
ltibia 46.59435042178535
lfoot 17.106677880406668 -17.339333642285762
ltoes 0.4428641525778003
rfemur -25.476881574728676 4.478223055363955 23.27299883623438
rtibia 43.713178826221764
rfoot -4.6962428459684205 -6.495675182841121
rtoes 11.713303065953795
lowerback 11.87596663198276 -0.6757434188996119 -1.2430856466985318
upperback -0.6279689495932296 -1.0443097568342683 1.9613727860949282
thorax -7.320872566931608 -0.5131261698455071 2.725270564657057
lowerneck -16.47140091518378 -2.977208841285442 -3.4052937531947904
upperneck 19.51713773762028 -3.2051295338036887 2.300008290294934
head 8.777377009205068 -1.5863286821661151 1.2314481701593523
lclavicle -1.6747200953866581e-15 -3.591560512689162e-15
lhumerus -39.28873211570133 -5.739759132225101 89.58067650227864
lradius 74.65573495408216
lwrist 21.54557886803466
lhand -31.443057723393956 13.32417304478455
lfingers 7.125019999999999
lthumb -4.938665346493574 43.14058542266455
rclavicle -1.6761878325630131e-15 -3.592576345066364e-15
rhumerus -39.474234867683386 -8.369936751299623 -85.64086555992147
rradius 56.39123944471305
rwrist 1.1473575689574407
rhand -18.66753337072014 29.02072171267883
rfingers 7.125019999999999
rthumb 7.237045364882099 -1.0077189620054272
123
root -0.14486715114955784 17.474676117176905 60.109623634196275 1.3384606203489073 2.020519697316402 0.5014796964828028
lfemur -1.0854850633892301 -3.8772563754403437 -21.634697963430085
ltibia 49.67997157249106
lfoot 18.633379466371352 -15.451350844981
ltoes 0.8798707749059451
rfemur -25.03539744533423 4.300314734707554 24.082493167153643
rtibia 43.63757605588543
rfoot -7.736734821524188 -6.7546092890766465
rtoes 9.686835975495885
lowerback 11.853433434468293 -0.7618967777358996 -0.7558933029613712
upperback -0.5067809149519678 -1.0927083032201974 2.109612379941047
thorax -7.355246753447916 -0.5431154137009402 2.539546491921648
lowerneck -16.43739231307127 -3.008017139206798 -3.364825115668557
upperneck 19.68047170324308 -3.2520182159099367 2.3003621070399642
head 8.834895294209083 -1.6053084807712394 1.234083679224361
lclavicle -1.673766938430456e-15 -3.590885676388482e-15
lhumerus -40.45188357780126 -5.313114812387947 89.86927251212003
lradius 73.98439990912071
lwrist 22.095728302269688
lhand -31.040602423135038 12.945187145886733
lfingers 7.125019999999999
lthumb -4.666605346942148 42.73167396078127
rclavicle -1.6762820545035544e-15 -3.592643039418135e-15
rhumerus -39.46081082982132 -8.379035832254761 -85.85853900630642
rradius 56.698515066872226
rwrist 0.4606194884621937
rhand -18.63969223322276 29.094102187355944
rfingers 7.125019999999999
rthumb 7.3365235699749665 -0.9407472103830116
124
root -0.13673411733309482 17.515644159898265 60.29306193613439 1.3870284155924293 2.0285379173799427 0.819401704394807
lfemur -1.506200782964557 -4.197551870259458 -21.80645270208782
ltibia 52.390423077569835
lfoot 19.316510892413273 -12.438338021356241
ltoes 1.1995899135028276
rfemur -24.69126640261878 3.734126256234293 24.042844097458484
rtibia 43.71757131671819
rfoot -10.563306852593993 -7.151794220340513
rtoes 7.245901580016469
lowerback 11.754596057866541 -0.9000403513354696 -0.9374178758158509
upperback -0.44841440589891984 -1.337126197049711 2.056615914362099
thorax -7.351326316925245 -0.6682290506737971 2.61856054418619
lowerneck -16.44517022988855 -3.0452452657379356 -3.332052161980797
upperneck 19.744038615343353 -3.3140611934595285 2.3696789120560364
head 8.828355429446027 -1.6268853458061048 1.2693597248938857
lclavicle -1.6742238579883435e-15 -3.591207313451306e-15
lhumerus -41.48364083364216 -4.898572307303296 90.09744763289542
lradius 73.09559013163386
lwrist 22.677227089188314
lhand -30.702803807704814 12.404769668780954
lfingers 7.125019999999999
lthumb -4.393082283191531 42.104035496672374
rclavicle -1.6768685845538519e-15 -3.593057753845613e-15
rhumerus -39.47717258639769 -8.2507964257384 -86.07083887908536
rradius 56.99585310535123
rwrist 0.2602611569338098
rhand -18.533373091382078 29.161785722258873
rfingers 7.125019999999999
rthumb 7.483882637087953 -0.6641787220369662
